<svg xmlns="http://www.w3.org/2000/svg" viewBox="0 0 87.41 87.41"><defs><style>.a{fill:#92e637;}.b{fill:#fff;}</style></defs><title>icon-aereo</title><circle class="a" cx="43.71" cy="43.71" r="43.71"/><path class="b" d="M3086.34,789.23a12.43,12.43,0,0,0-4.41-1.77l-0.21,1a12.36,12.36,0,0,1,3.91,1.5,12.73,12.73,0,0,1,1.5,3.92l1-.21a13,13,0,0,0-1.7-4.33A0.25,0.25,0,0,0,3086.34,789.23Z" transform="translate(-3024.81 -763.36)"/><path class="b" d="M3053.45,779.46a2,2,0,0,0-2.24.59l-5.69,6.79a2,2,0,0,0,.35,2.9l15.51,11.39a107.33,107.33,0,0,0-6.85,11.5l-7.64-1.56a2,2,0,0,0-1.82.55l-3.71,3.72a2,2,0,0,0,.37,3.12l9.54,5.83,5.82,9.54a2,2,0,0,0,1.47.94h0.24a2,2,0,0,0,1.41-.58l3.72-3.71a2,2,0,0,0,.55-1.82l-1.55-7.62a107.19,107.19,0,0,0,11.5-6.86l11.38,15.51a2,2,0,0,0,1.37.8h0.24a2,2,0,0,0,1.29-.47l6.8-5.7a2,2,0,0,0,.59-2.24l-7.53-20c4.61-5.34,7.21-11.22,6.84-15.55a7,7,0,0,0-1.9-4.44l0,0a6.36,6.36,0,0,0-4.42-1.93h-0.19l-0.72,0c-4.26,0-9.69,2.55-14.69,6.88Zm32.65,23.13,7.55,20.08-6.12,5.13-11.92-16.25,0.08-.06a81.76,81.76,0,0,0,9.18-7.66l0.59-.58C3085.68,803,3085.89,802.82,3086.1,802.6Zm-0.18-1.26c-0.38.41-.76,0.82-1.16,1.22l-0.58.57a80.91,80.91,0,0,1-9.07,7.57l-0.49.34a103.66,103.66,0,0,1-14.16,8.48,0.5,0.5,0,0,0-.27.55l1.8,8.85-3.08,3.07-5.75-9.41a0.49,0.49,0,0,0-.17-0.17l-9.41-5.75,3.07-3.08,8.88,1.81a0.5,0.5,0,0,0,.55-0.27,103.57,103.57,0,0,1,8.46-14.16l0.34-.49a80.88,80.88,0,0,1,7.56-9.07l0.14-.15,0.43-.44c0.4-.4.81-0.79,1.22-1.16,4.73-4.34,10.07-7,13.93-7l0.73,0a3.84,3.84,0,0,1,2.84,1.2,4.55,4.55,0,0,1,1.21,2.92C3093.26,790.61,3090.51,796.33,3085.92,801.34Zm-21.84-1.45L3064,800,3047.78,788l5.12-6.11,20.08,7.55c-0.22.21-.45,0.42-0.66,0.63l-0.44.45-0.14.14A81.86,81.86,0,0,0,3064.08,799.89Z" transform="translate(-3024.81 -763.36)"/></svg>