<svg xmlns="http://www.w3.org/2000/svg" viewBox="0 0 87.41 87.41"><defs><style>.a{fill:#487ffa;}.b{fill:#fff;}</style></defs><title>icon-time</title><circle class="a" cx="43.71" cy="43.71" r="43.71"/><path class="b" d="M2643.39,822.55h-10.49v-4.67a4.54,4.54,0,0,1,.37-1.82,4.79,4.79,0,0,1,1-1.49,4.7,4.7,0,0,1,1.48-1,4.52,4.52,0,0,1,1.82-.37h1.57a1.53,1.53,0,0,0,1.1-.45,1.53,1.53,0,0,0,.33-0.5,1.58,1.58,0,0,0,.12-0.61,1.54,1.54,0,0,0-1.55-1.55h-5.57V807h5.57a4.48,4.48,0,0,1,1.81.37,4.75,4.75,0,0,1,2.49,2.49,4.48,4.48,0,0,1,.37,1.81,4.53,4.53,0,0,1-.37,1.82,4.75,4.75,0,0,1-2.49,2.49,4.47,4.47,0,0,1-1.81.37h-1.57a1.54,1.54,0,0,0-.61.12,1.55,1.55,0,0,0-.83.83,1.54,1.54,0,0,0-.12.61v1.55h7.37v3.12Zm10.48-.33a4.68,4.68,0,0,0,1.56-1,4.63,4.63,0,0,0,1.08-1.54,5.42,5.42,0,0,0,0-4.09,4.72,4.72,0,0,0-1.08-1.54,4.67,4.67,0,0,0-1.56-1,5.14,5.14,0,0,0-1.85-.34h-2.85l0.28-2.68h6.82V807h-9.62l-0.91,8.91H2652a1.89,1.89,0,0,1,.64.11,1.8,1.8,0,0,1,.58.34,1.73,1.73,0,0,1,.41.56,1.83,1.83,0,0,1,.16.77,1.94,1.94,0,0,1-.16.81,1.61,1.61,0,0,1-.41.55,1.65,1.65,0,0,1-.58.32,2.2,2.2,0,0,1-.64.1h-6.28v3.12H2652A5.16,5.16,0,0,0,2653.87,822.22Zm16.88-31v8h0v27.88a6,6,0,0,1-6,6h-39.87a6,6,0,0,1-6-6V791.19a6,6,0,0,1,6-6h3.69v-0.87a3.25,3.25,0,0,1,6.5,0v0.88h19.5v-0.87a3.25,3.25,0,0,1,6.5,0v0.88h3.69A6,6,0,0,1,2670.75,791.19Zm-14.19-6v4a1.25,1.25,0,1,0,2.5,0v-4.87a1.25,1.25,0,0,0-2.5,0v0.88Zm-26,0h0v4a1.25,1.25,0,1,0,2.5,0v-4.87a1.25,1.25,0,0,0-2.5,0v0.88Zm-9.69,12h47.88v-6a4,4,0,0,0-4-4h-3.69v2a3.25,3.25,0,0,1-3.25,3.25h0a3.25,3.25,0,0,1-3.25-3.25v-2h-19.5v2a3.25,3.25,0,1,1-6.5,0v-2h-3.69a4,4,0,0,0-4,4v6Zm47.88,2h-47.87v27.88a4,4,0,0,0,4,4h39.88a4,4,0,0,0,4-4V799.19Z" transform="translate(-2601.11 -763.36)"/></svg>