<svg xmlns="http://www.w3.org/2000/svg" viewBox="0 0 41.03 41.03"><defs><style>.a{fill:#9b4534;}.b{fill:#fff;}</style></defs><title>icon-aventura</title><circle class="a" cx="20.51" cy="20.52" r="20.52"/><path class="b" d="M1244.15,1705.49a3.79,3.79,0,0,1-3.64-3.64,3.51,3.51,0,0,1,1-2.54,3.79,3.79,0,0,1,2.68-1.14,3.61,3.61,0,0,1,3.58,3.61,3.68,3.68,0,0,1-3.59,3.7h-0.05Zm0.07-6.76a3.23,3.23,0,0,0-2.29,1,3,3,0,0,0-.87,2.14,3.22,3.22,0,0,0,3.08,3.09h0a3.12,3.12,0,0,0,3-3.14A3.05,3.05,0,0,0,1244.22,1698.74Zm-16.31,6.76h0a3.66,3.66,0,0,1,0-7.31h0a3.7,3.7,0,0,1,3.62,3.68A3.77,3.77,0,0,1,1227.91,1705.49Zm0-6.75a3.09,3.09,0,0,0-3.08,3,3.14,3.14,0,0,0,3,3.22h0a3.19,3.19,0,0,0,3.1-3.08,3.13,3.13,0,0,0-3.06-3.11h0Zm0,4.76h0a1.65,1.65,0,0,1-1.74-1.7,1.67,1.67,0,0,1,1.69-1.68h0a1.74,1.74,0,0,1,1.77,1.68,1.66,1.66,0,0,1-.48,1.2A1.78,1.78,0,0,1,1227.92,1703.5Zm0-3.1,0,0.28a1.13,1.13,0,1,0,0,2.26,1.21,1.21,0,0,0,.88-0.34,1.11,1.11,0,0,0,.32-0.8,1.18,1.18,0,0,0-1.22-1.12v-0.28Zm16.25,3.1h0a1.65,1.65,0,0,1-1.69-1.67,1.67,1.67,0,0,1,.48-1.2,1.8,1.8,0,0,1,1.29-.51h0.06a1.68,1.68,0,0,1,1.66,1.73A1.66,1.66,0,0,1,1244.15,1703.5Zm0-2.82a1.24,1.24,0,0,0-.89.34,1.13,1.13,0,0,0,.83,1.92h0a1.11,1.11,0,0,0,1.22-1.1,1.13,1.13,0,0,0-1.11-1.16h0Zm-21.88,1.2c-1.09,0-1.09-.6-1.1-1.92v-0.59h-1.14a1.23,1.23,0,0,1-1.4-1.42c0-1.6,0-3.08,0-4.54a1.14,1.14,0,0,1,1.31-1.34h1.24v-0.32c0-.42,0-0.83,0-1.23a2,2,0,0,1,2.19-2.24q6.45,0,12.91,0a2.85,2.85,0,0,1,2.63,1.55c0.37,0.66.76,1.32,1.14,2s0.74,1.26,1.1,1.9a0.63,0.63,0,0,0,.65.4h0l2.36,0h2.67c1.83,0,2.51.67,2.51,2.47q0,0.23,0,.46c0,0.38,0,.77,0,1.15a0.45,0.45,0,0,0,0,.29,0.32,0.32,0,0,0,.17,0,0.92,0.92,0,0,1,.88.22,1.13,1.13,0,0,1,.19.89,4.21,4.21,0,0,0,0,.79,1.42,1.42,0,0,1-.31,1.11,1.63,1.63,0,0,1-1.52.33,0.91,0.91,0,0,1-.57-0.71,4.13,4.13,0,0,0-3.6-3.41c-2.43-.08-4.09,1-4.52,3.08a1.17,1.17,0,0,1-1.35,1.11h-0.11l-2.7,0-2.87,0h0a1,1,0,0,1-1.12-.92,3.94,3.94,0,0,0-3.9-3.28H1228a4,4,0,0,0-4.08,3.12l-0.14.54-0.1.38-0.13,0,0,0a0.55,0.55,0,0,1-.18.05C1222.88,1701.86,1222.57,1701.88,1222.32,1701.88Zm-0.82-3.07h0.28V1700c0,1.36,0,1.36.54,1.36,0.22,0,.5,0,0.86-0.05l0-.1,0.14-.53a4.63,4.63,0,0,1,4.62-3.54h0.12a4.54,4.54,0,0,1,4.44,3.73,0.45,0.45,0,0,0,.57.46h0l2.88,0,2.71,0h0.1a0.64,0.64,0,0,0,.81-0.67c0.48-2.28,2.39-3.61,5.09-3.52a4.7,4.7,0,0,1,4.12,3.87,0.61,0.61,0,0,0,.14.26,1.14,1.14,0,0,0,1-.16,0.9,0.9,0,0,0,.16-0.69,4.83,4.83,0,0,1,0-.89,0.6,0.6,0,0,0,0-.45,0.29,0.29,0,0,0-.21-0.06h-0.18a0.7,0.7,0,0,1-.66-0.17,0.94,0.94,0,0,1-.2-0.7c0-.37,0-0.76,0-1.13,0-.16,0-0.31,0-0.47,0-1.5-.42-1.92-2-1.92h-2.67l-2.34,0h0a1.18,1.18,0,0,1-1.13-.69c-0.36-.63-0.73-1.27-1.1-1.89s-0.77-1.31-1.14-2a2.3,2.3,0,0,0-2.15-1.26q-6.45,0-12.9,0a1.44,1.44,0,0,0-1.64,1.68c0,0.4,0,.8,0,1.22v0.88H1220c-0.64,0-.76.14-0.76,0.78,0,1.45,0,2.93,0,4.53,0,0.67.17,0.84,0.86,0.87h1.4Zm4.26-4.13h-2.71v-0.28q0-.48,0-0.94c0-1,0-1.88,0-2.8a0.88,0.88,0,0,1,.71-0.72c1.91,0,3.84,0,5.73,0a0.89,0.89,0,0,1,.71.72c0,1,0,2.12,0,3.3a0.83,0.83,0,0,1-.65.71C1228.25,1694.68,1226.9,1694.69,1225.76,1694.69Zm-2.15-.56h2.15c1.13,0,2.45,0,3.76,0a0.47,0.47,0,0,0,.14-0.18c0-1.15,0-2.21,0-3.25a0.6,0.6,0,0,0-.18-0.18c-1.87,0-3.78,0-5.66,0a0.51,0.51,0,0,0-.18.2c0,0.89,0,1.8,0,2.76C1223.62,1693.68,1223.62,1693.9,1223.62,1694.13Zm16.11,0.48h-8.56v-1.12c0-1,0-2,0-2.93a0.82,0.82,0,0,1,.71-0.63l2.39,0h2.22a0.89,0.89,0,0,1,.7.36c0.58,1,1.14,1.95,1.74,3Zm-8-.56h7l-0.29-.51c-0.6-1-1.16-2-1.74-3a0.43,0.43,0,0,0-.23-0.09h-2.21l-2.38,0a0.53,0.53,0,0,0-.16.13c0,1,0,1.93,0,2.87V1694Z" transform="translate(-1214.18 -1676.37)"/></svg>