<svg xmlns="http://www.w3.org/2000/svg" viewBox="0 0 41 41"><defs><style>.a{fill:#6fb353;}.b{fill:#fff;}</style></defs><title>icon-ecologico</title><circle class="a" cx="20.5" cy="20.5" r="20.5"/><path class="b" d="M1239.27,2161.15v-1.47c1.36-.32,2.73-0.69,3.92-1.06a0.94,0.94,0,0,0,.5-1.42l-2.5-3.78h0.46a0.94,0.94,0,0,0,.79-1.46l-2.75-4.16h0.38a0.94,0.94,0,0,0,.79-1.46l-5.38-8.13a0.94,0.94,0,0,0-1.57,0l-5.38,8.13a0.94,0.94,0,0,0,.79,1.46h0.38l-2.75,4.16a0.94,0.94,0,0,0,.79,1.46h0.46l-2.5,3.78a0.95,0.95,0,0,0,.51,1.42c1.2,0.37,2.57.74,3.92,1.06v1.48c0,1.48,1.88,2.51,4.57,2.51S1239.27,2162.62,1239.27,2161.15Zm-4.57,1.33c-2,0-3.39-.7-3.39-1.33v-1.94a22.52,22.52,0,0,0,3.39.55h0a21.73,21.73,0,0,0,3.38-.54v1.94C1238.09,2161.78,1236.7,2162.47,1234.7,2162.47Zm-4.55-9.88a0.24,0.24,0,0,0-.2-0.37h-1.78l3.47-5.25a0.24,0.24,0,0,0,0-.24,0.24,0.24,0,0,0-.21-0.12h-1.69l4.94-7.47,4.94,7.47h-1.7a0.23,0.23,0,0,0-.21.12,0.24,0.24,0,0,0,0,.24l3.47,5.25h-1.78a0.23,0.23,0,0,0-.21.12,0.24,0.24,0,0,0,0,.24l3.29,5c-1.31.4-2.81,0.79-4.26,1.11a23.29,23.29,0,0,1-3.56.59v0.24l0-.24a23.8,23.8,0,0,1-3.57-.6c-1.45-.32-2.95-0.71-4.26-1.11Z" transform="translate(-1214.2 -2130.21)"/></svg>