<svg xmlns="http://www.w3.org/2000/svg" viewBox="0 0 41 41"><defs><style>.a{fill:#82e6d7;}.b{fill:#fff;}</style></defs><title>icon-sol</title><circle class="a" cx="20.5" cy="20.5" r="20.5"/><path class="b" d="M1951.38,1686.85a1.44,1.44,0,0,1-2.81,0h0c0-.41,1.05-2.14,1.41-2.14a4.28,4.28,0,0,1,1.41,2.14h0Zm8.59,11.41h0a4.27,4.27,0,0,0,2.13-1.41c0-.36-1.72-1.41-2.13-1.41h0a1.44,1.44,0,0,0,0,2.81h0Zm-20-2.83h0a4.28,4.28,0,0,0-2.14,1.41c0,0.36,1.73,1.41,2.14,1.41h0a1.44,1.44,0,0,0,0-2.81h0Zm3.93-6.65h0a4.29,4.29,0,0,0-2.51-.51c-0.25.25,0.22,2.22,0.51,2.51h0a1.44,1.44,0,0,0,2-2h0Zm14.13,2h0a4.27,4.27,0,0,0,.51-2.51c-0.25-.25-2.21.22-2.5,0.51h0a1.44,1.44,0,0,0,2,2h0Zm1.87,10.8a0.5,0.5,0,0,0-.5-0.5h-18.18a0.5,0.5,0,1,0,0,1h18.18A0.5,0.5,0,0,0,1959.91,1701.58Zm-1.63,2.33a0.5,0.5,0,0,0-.5-0.5H1939a0.5,0.5,0,1,0,0,1h18.81A0.5,0.5,0,0,0,1958.28,1703.9Zm2.7,2.33a0.5,0.5,0,0,0-.5-0.5H1945.8a0.5,0.5,0,0,0,0,1h14.67A0.5,0.5,0,0,0,1961,1706.23Zm-1.19,2.33a0.5,0.5,0,0,0-.5-0.5h-14.79a0.5,0.5,0,1,0,0,1h14.79A0.5,0.5,0,0,0,1959.79,1708.56Zm-9.81-17.88a6.17,6.17,0,0,0-5.92,7.89h11.84a6.17,6.17,0,0,0-5.92-7.89m0-1a7.17,7.17,0,0,1,6.63,9.9h-13.25a7.17,7.17,0,0,1,6.63-9.9h0Z" transform="translate(-1929.47 -1676.38)"/></svg>