<svg xmlns="http://www.w3.org/2000/svg" viewBox="0 0 41 41"><defs><style>.a{fill:#487ffa;}.b{fill:#fff;}</style></defs><title>icon-cultura</title><circle class="a" cx="20.5" cy="20.5" r="20.5"/><path class="b" d="M1715.71,1687.44a1.56,1.56,0,1,0,1.56,1.56A1.56,1.56,0,0,0,1715.71,1687.44Zm0,2.35a0.79,0.79,0,1,1,.79-0.79A0.79,0.79,0,0,1,1715.71,1689.79Z" transform="translate(-1695.29 -1676.38)"/><path class="b" d="M1727.66,1690.94l-11.72-5a0.38,0.38,0,0,0-.3,0l-11.75,5a0.38,0.38,0,0,0,.15.73h1v1.09a0.38,0.38,0,0,0,.38.38h0.66v1.28a0.38,0.38,0,0,0,.38.38h0.88v8.42h-0.88a0.38,0.38,0,0,0-.38.38v1.21h-0.66a0.45,0.45,0,0,0-.46.45v2.07a0.45,0.45,0,0,0,.46.45h20.93a0.45,0.45,0,0,0,.45-0.45v-2.07a0.46,0.46,0,0,0-.45-0.45h-1v-1.21a0.38,0.38,0,0,0-.38-0.38H1724v-8.42H1725a0.38,0.38,0,0,0,.38-0.38v-1.28h1a0.38,0.38,0,0,0,.38-0.38v-1.09h0.82A0.38,0.38,0,0,0,1727.66,1690.94Zm-19.57,3.88H1710v8.42h-1.87v-8.42Zm6.07,0v8.42h-3.43v-8.42h3.43Zm6.48,0v8.42h-3.08v-8.42h3.08Zm-3.84,8.42h-1.87v-8.42h1.87v8.42Zm9.09,3.67h-20v-1.17h20v1.17Zm-1.29-2.07h-17.77V1704h17.77v0.83Zm-1.32-1.59h-1.87v-8.42h1.87v8.42Zm1.32-9.18h-17.77v-0.9h17.77v0.9Zm-8.8-7.32,9.87,4.19h-19.73Zm10.16,5.66h-20.17v-0.71H1726v0.71Z" transform="translate(-1695.29 -1676.38)"/></svg>