<svg xmlns="http://www.w3.org/2000/svg" xmlns:xlink="http://www.w3.org/1999/xlink" viewBox="0 0 98.63 98.47"><defs><style>.a{isolation:isolate;}.b{opacity:0.3;fill:url(#a);}.c{fill:#b7986e;}.d,.e{fill:#272425;}.d{mix-blend-mode:screen;}.f{fill:#808083;}.g{fill:#2a4a3b;}.h{fill:#fff;}</style><linearGradient id="a" x1="3965.2" y1="3501.49" x2="3965.2" y2="3549.76" gradientTransform="matrix(1, 0, 0, 1, -667.61, -1111.82)" gradientUnits="userSpaceOnUse"><stop offset="0" stop-color="#a5a6a9"/><stop offset="1" stop-color="#a5a6a9" stop-opacity="0"/></linearGradient></defs><title>icon-day2</title><g class="a"><rect class="b" x="3260.32" y="2388.88" width="74.59" height="49.18" transform="translate(-3983.48 679.82) rotate(-45)"/><circle class="c" cx="38.21" cy="38.21" r="38.21"/><path class="d" d="M3280.09,2358.92c21.45,0,38.83,17.12,38.83,38.25s-17.38,38.25-38.83,38.25" transform="translate(-3242.74 -2358.76)"/><path class="e" d="M3263.5,2400.36a5.59,5.59,0,0,0-5.52,5.6,5.71,5.71,0,0,0,5.57,5.75h0.08a5.89,5.89,0,0,0,5.65-5.66,5.42,5.42,0,0,0-1.59-3.91A5.91,5.91,0,0,0,3263.5,2400.36Zm0.18,8.73h-0.05a3,3,0,0,1-3.22-3,3.07,3.07,0,0,1,3-3.16h0.11a3.3,3.3,0,0,1,2.36.93,3.07,3.07,0,0,1,.87,2.19A3,3,0,0,1,3263.68,2409.09Z" transform="translate(-3242.74 -2358.76)"/><path class="f" d="M3293.43,2403.93l0-.51v0.51a2.16,2.16,0,0,0-2.23,2.05,2,2,0,0,0,.58,1.46,2.22,2.22,0,0,0,1.61.63A2.07,2.07,0,1,0,3293.43,2403.93Z" transform="translate(-3242.74 -2358.76)"/><path class="e" d="M3293.37,2400.37h-0.06a5.73,5.73,0,0,0-5.61,5.71,5.85,5.85,0,0,0,5.67,5.64h0.06a5.74,5.74,0,0,0,5.58-5.89A5.67,5.67,0,0,0,3293.37,2400.37Zm0,8.73a3.25,3.25,0,0,1-2.33-.93,3,3,0,0,1-.87-2.19,3.18,3.18,0,0,1,3.25-3.07h0a3.05,3.05,0,0,1,3.1,3.08A3,3,0,0,1,3293.35,2409.09Z" transform="translate(-3242.74 -2358.76)"/><path class="f" d="M3263.54,2403.93h-0.08a2.07,2.07,0,1,0,.2,4.14h0a2.08,2.08,0,0,0,1.51-3.51A2.27,2.27,0,0,0,3263.54,2403.93Z" transform="translate(-3242.74 -2358.76)"/><path class="g" d="M3303.62,2405.6c-0.41,0-.93,0-1.62-0.1l-0.35,0-0.14-.52c-0.09-.32-0.18-0.65-0.26-1a8,8,0,0,0-8-6.11h-0.19a7.83,7.83,0,0,0-7.67,6.43,1.3,1.3,0,0,1-1.53,1.25c-1.93,0-3.65,0-5.35,0s-3.36,0-4.95,0h-0.2a1.65,1.65,0,0,1-2-1.62c-0.8-3.79-3.91-6.05-8.33-6.05h-0.48c-3.28.11-6.38,3-7.08,6.67a1.56,1.56,0,0,1-.42.76l-0.11.1-0.15,0a5.55,5.55,0,0,1-.76.06,2,2,0,0,1-1.49-.52,2.11,2.11,0,0,1-.42-1.64,8.31,8.31,0,0,0,0-1.53,1.52,1.52,0,0,1,.22-1.22,1,1,0,0,1,.74-0.27l0.4,0,0.28,0a0.63,0.63,0,0,0,.5-0.19,1.28,1.28,0,0,0,.21-0.91c0-.69,0-1.4,0-2.09,0-.29,0-0.57,0-0.85,0-3,1-4,4.09-4h4.89c1.68,0,3,0,4.3,0a1.7,1.7,0,0,0,1.7-1c0.65-1.15,1.33-2.31,2-3.42s1.43-2.43,2.11-3.64a4.74,4.74,0,0,1,4.37-2.57l12,0,11.61,0c2.34,0,3.49,1.18,3.5,3.58v3.35h2.77c1.44,0,1.88.49,1.88,1.93,0,2.66,0,5.38,0,8.3,0,1.51-.52,2-2.06,2.09l-1,0h-1.54v1.61C3305.1,2405,3305.1,2405.6,3303.62,2405.6Zm-7.94-20.88c-1.75,0-3.5,0-5.23,0a1.2,1.2,0,0,0-.8.84c-0.07,1.94-.07,3.91,0,6a1.08,1.08,0,0,0,.7.8c2.42,0,4.88,0,7,0h4.45s0-1.17,0-1.74c0-1.79,0-3.45,0-5.11a1.17,1.17,0,0,0-.8-0.83C3299.18,2384.73,3297.43,2384.72,3295.67,2384.72Zm-8.77,7.57v-1.56c0-1.92,0-3.64,0-5.36a1.07,1.07,0,0,0-.81-0.66c-1.37,0-2.8,0-4.36,0l-4.06,0a1.15,1.15,0,0,0-.86.41c-1,1.67-2,3.36-3,5.13l-1.18,2h14.31Z" transform="translate(-3242.74 -2358.76)"/><path class="h" d="M3290,2382.21l11.61,0c2.06,0,3,1,3,3.08,0,0.74,0,1.47,0,2.24v1.61h3.26c1.17,0,1.39.26,1.39,1.44,0,2.66,0,5.37,0,8.3,0,1.23-.31,1.54-1.58,1.59l-1,0h-2v2.11c0,2.49,0,2.49-1,2.49-0.4,0-.92,0-1.57-0.1l-0.05-.19c-0.09-.32-0.18-0.64-0.26-1a8.49,8.49,0,0,0-8.46-6.48h-0.22a8.31,8.31,0,0,0-8.13,6.83,0.83,0.83,0,0,1-1,.85h-0.07c-1.85,0-3.58,0-5.28,0s-3.36,0-5,0h-0.19c-0.93,0-1.24-.09-1.48-1.22-0.85-4-4.14-6.45-8.82-6.45h-0.5c-3.5.12-6.82,3.23-7.55,7.08a1.09,1.09,0,0,1-.26.48,4.78,4.78,0,0,1-.69.06,1.49,1.49,0,0,1-1.12-.36,1.65,1.65,0,0,1-.29-1.26,8.76,8.76,0,0,0,0-1.63,1.1,1.1,0,0,1,.09-0.83,0.54,0.54,0,0,1,.38-0.11l0.32,0a2.08,2.08,0,0,0,.35,0,1.13,1.13,0,0,0,.86-0.34,1.72,1.72,0,0,0,.36-1.28c0-.68,0-1.39,0-2.06q0-.43,0-0.86c0-2.75.77-3.51,3.59-3.52h4.89c1.68,0,3,0,4.29,0h0.08a2.15,2.15,0,0,0,2.07-1.26c0.65-1.16,1.34-2.33,2-3.46s1.41-2.39,2.09-3.61a4.22,4.22,0,0,1,3.94-2.31l12,0m-18.26,10.57h15.68v-2.06c0-1.76,0-3.58,0-5.37a1.5,1.5,0,0,0-1.3-1.15c-1.38,0-2.81,0-4.37,0l-4.06,0a1.63,1.63,0,0,0-1.29.66c-1.06,1.77-2.1,3.57-3.19,5.47l-1.42,2.46m25.57,0.15h5v-0.51c0-.58,0-1.16,0-1.72,0-1.78,0-3.45,0-5.13a1.61,1.61,0,0,0-1.29-1.31c-1.75,0-3.5,0-5.26,0s-3.5,0-5.24,0a1.63,1.63,0,0,0-1.29,1.32c-0.06,1.91-.07,3.89,0,6a1.52,1.52,0,0,0,1.19,1.29c2.42,0,4.88,0,7,0m-7.32-11.73-12,0a5.21,5.21,0,0,0-4.81,2.82c-0.69,1.23-1.43,2.48-2.08,3.59h0l0,0c-0.66,1.12-1.34,2.28-2,3.43a1.18,1.18,0,0,1-1.2.75h-0.08c-1.24,0-2.61,0-4.29,0h-4.89c-3.38,0-4.58,1.19-4.58,4.52,0,0.28,0,.56,0,0.84,0,0.66,0,1.4,0,2.11a0.83,0.83,0,0,1-.08.54,0.16,0.16,0,0,1-.14,0l-0.19,0a3.29,3.29,0,0,0-.48,0,1.42,1.42,0,0,0-1.12.44,2,2,0,0,0-.33,1.6,7.86,7.86,0,0,1,0,1.45,2.57,2.57,0,0,0,.55,2,2.42,2.42,0,0,0,1.86.68,5.92,5.92,0,0,0,.83-0.07l0.3,0,0.22-.2a2,2,0,0,0,.58-1c0.65-3.4,3.55-6.16,6.6-6.26h0.47c4.22,0,7.08,2.06,7.84,5.65a2.13,2.13,0,0,0,2.46,2h0.19c1.56,0,3.22,0,5,0s3.4,0,5.27,0h0.06a1.79,1.79,0,0,0,2-1.66,7.33,7.33,0,0,1,7.17-6h0.2a7.52,7.52,0,0,1,7.49,5.73c0.09,0.33.18,0.67,0.26,1l0,0.18,0.19,0.68,0.7,0.06c0.7,0.06,1.23.1,1.66,0.1,2,0,2-1.09,2-3.49v-1.11h1l1.07,0c1.8-.06,2.53-0.81,2.54-2.59,0-2.93,0-5.65,0-8.31,0-1.71-.67-2.39-2.37-2.43h-2.28v-0.61c0-.77,0-1.51,0-2.25,0-2.66-1.39-4.07-4-4.08l-11.62,0h0Zm-16.53,10.57,0.55-1,0.19-.33c1-1.78,2-3.46,3-5.12a0.77,0.77,0,0,1,.44-0.17l4.05,0c1.5,0,2.93,0,4.36,0a0.87,0.87,0,0,1,.32.25c0,1.68,0,3.38,0,5.27v1.06h-12.95Zm17-6.53c1.7,0,3.44,0,5.17,0s3.48,0,5.19,0a0.86,0.86,0,0,1,.36.38c0,1.62,0,3.28,0,5,0,0.43,0,.85,0,1.27h-4c-2.08,0-4.52,0-6.89,0a0.79,0.79,0,0,1-.27-0.36c-0.06-2.05-.06-4,0-5.94a1,1,0,0,1,.36-0.36h0Z" transform="translate(-3242.74 -2358.76)"/></g></svg>