<svg xmlns="http://www.w3.org/2000/svg" viewBox="0 0 87.41 87.41"><defs><style>.a{fill:#afa92c;}.b{fill:#fff;}</style></defs><title>icon-salidas</title><circle class="a" cx="43.71" cy="43.71" r="43.71"/><path class="b" d="M3228.09,812.47a3.5,3.5,0,0,0-5.95,2l-6.48-6.48a1.25,1.25,0,1,1,0-1.93l6.48-6.48a3.5,3.5,0,0,0,7-.44v-8.07a3.62,3.62,0,0,0-.06-0.59,2.34,2.34,0,0,0-.08-0.28l0-.1a2.48,2.48,0,0,0-.09-0.28,3,3,0,0,0-.14-0.28l-0.05-.09a2,2,0,0,0-.13-0.22,3.47,3.47,0,0,0-1-1l-0.23-.13-0.11-.06L3227,788l-0.31-.1-0.11,0-0.25-.07-0.42-.06h-8.24a3.5,3.5,0,0,0-.44,7l-6.48,6.48a1.19,1.19,0,1,1-1.94,0l-6.48-6.48a3.5,3.5,0,0,0-.44-7h-8.07a3.64,3.64,0,0,0-.59.06l-0.28.08-0.1,0-0.29.09-0.28.14-0.09.05-0.22.13a3.46,3.46,0,0,0-1,1,2.14,2.14,0,0,0-.13.23l-0.06.11a2.22,2.22,0,0,0-.13.26,2.57,2.57,0,0,0-.11.31l0,0.11a2.15,2.15,0,0,0-.07.25,3.85,3.85,0,0,0-.06.42v8.25a3.5,3.5,0,0,0,7,.44l6.48,6.48a3.47,3.47,0,0,0,2.05,1,3.42,3.42,0,0,0-2.05,1l-6.48,6.48a3.5,3.5,0,0,0-7,.44v8a3.55,3.55,0,0,0,.07.68,3.11,3.11,0,0,0,.1.35c0,0.1.06,0.21,0.09,0.29a3.16,3.16,0,0,0,.2.39,1.75,1.75,0,0,0,.13.23,3.68,3.68,0,0,0,.37.47l0.05,0.06h0a3.4,3.4,0,0,0,.53.43l0.24,0.13,0.1,0.05,0.26,0.13a3.5,3.5,0,0,0,.41.13l0.24,0.07a3.56,3.56,0,0,0,.7.07h8a3.5,3.5,0,0,0,.43-7l6.48-6.48a1.2,1.2,0,1,1,1.94,0l6.48,6.48a3.5,3.5,0,0,0-3.06,3.47,3.5,3.5,0,0,0,3.5,3.5h8a3.58,3.58,0,0,0,.68-0.07l0.35-.1,0.29-.09a3.26,3.26,0,0,0,.39-0.2l0.23-.13a3.55,3.55,0,0,0,.47-0.37l0.06-.05h0a3.41,3.41,0,0,0,.43-0.53,2.15,2.15,0,0,0,.13-0.24l0.05-.1a2.31,2.31,0,0,0,.13-0.26,3.48,3.48,0,0,0,.13-0.41,2,2,0,0,0,.07-0.24,3.4,3.4,0,0,0,.07-0.7v-8A3.46,3.46,0,0,0,3228.09,812.47Zm-16-9.91,9.87-9.87h-4.37a1.5,1.5,0,0,1,0-3h8a1.44,1.44,0,0,1,.31,0l0.52,0.22a1.43,1.43,0,0,1,.42.43l0.21,0.52a1.55,1.55,0,0,1,0,.29v8a1.5,1.5,0,1,1-3,0v-4.36l-9.86,9.86a1.54,1.54,0,0,1-2.12,0A1.5,1.5,0,0,1,3212.13,802.56Zm-16.75-7.74h0v4.36a1.5,1.5,0,0,1-3,0v-8a1.32,1.32,0,0,1,0-.31l0.22-.52a1.45,1.45,0,0,1,.43-0.42l0.52-.21,0.29,0h8a1.5,1.5,0,1,1,0,3h-4.36l9.86,9.86a1.51,1.51,0,0,1,0,2.12,1.54,1.54,0,0,1-2.12,0Zm12,16.75-9.87,9.87h4.36a1.5,1.5,0,0,1,1.5,1.5,1.5,1.5,0,0,1-1.5,1.5h-8a1.3,1.3,0,0,1-.3,0l-0.53-.22-0.2-.16,0,0a1.32,1.32,0,0,1-.19-0.24l-0.22-.52a1.48,1.48,0,0,1,0-.29v-8a1.5,1.5,0,1,1,3,0v4.36l9.87-9.86a1.54,1.54,0,0,1,2.12,0A1.5,1.5,0,0,1,3207.36,811.57Zm2.38-1.63a2.12,2.12,0,1,1-1-3.84,1.19,1.19,0,1,1,1.94,0,3.46,3.46,0,0,0,2.05,1,3.43,3.43,0,0,0-2.05,1A3.47,3.47,0,0,0,3209.75,809.93Zm17.37,13a1.39,1.39,0,0,1,0,.3l-0.22.53a1.88,1.88,0,0,1-.16.2l0,0a1.3,1.3,0,0,1-.24.19l-0.52.22-0.29,0h-8a1.5,1.5,0,1,1,0-3H3222l-9.86-9.87a1.5,1.5,0,0,1,0-2.12,1.54,1.54,0,0,1,2.12,0l9.87,9.87v-4.36a1.5,1.5,0,0,1,.44-1.06,1.53,1.53,0,0,1,2.12,0,1.47,1.47,0,0,1,.44,1.06v8Z" transform="translate(-3166.04 -763.36)"/></svg>