<svg xmlns="http://www.w3.org/2000/svg" viewBox="0 0 87.41 87.41"><defs><style>.a{fill:#82e6d7;}.b{fill:#fff;}</style></defs><title>icon-service</title><circle class="a" cx="43.71" cy="43.71" r="43.71"/><path class="b" d="M2810.49,800.78a32.16,32.16,0,0,0,1.79-11.38,10.26,10.26,0,0,0-10.23-10.24h0a10.27,10.27,0,0,0-9.93,7.81,12.8,12.8,0,0,0-12.13,0,10.23,10.23,0,0,0-20.17,2.43,32,32,0,0,0,1.8,11.37c-5.73,4.8-7.64,13.45-7.72,13.85a2.38,2.38,0,0,0,2.33,2.87H2772a39.89,39.89,0,0,0-6.75,14.6,2.38,2.38,0,0,0,2.32,2.87h36.87a2.38,2.38,0,0,0,2.32-2.87,40,40,0,0,0-6.75-14.6h15.82a2.37,2.37,0,0,0,2.32-2.87C2818.12,814.22,2816.21,805.58,2810.49,800.78ZM2768.37,832c0.69-2.62,3.47-11.74,9.69-16.29h0.85a8.41,8.41,0,0,0,14.31,0H2794c6.22,4.55,9,13.67,9.69,16.29h-35.36Zm1.67-49.87a7.29,7.29,0,0,1,7.26,7.27c0,0.74,0,1.49-.07,2.23a10.94,10.94,0,0,0-2.26,6.68c0,0.92,0,1.84.07,2.76-1.23,2.21-2.9,3.33-5,3.33a5.57,5.57,0,0,1-4.93-3.17h0c-1.51-2.6-2.34-6.8-2.34-11.83A7.28,7.28,0,0,1,2770,782.13Zm24.75,7.27a7.26,7.26,0,1,1,14.52,0c0,5-.83,9.25-2.33,11.84l0.51,0.29h0l-0.51-.29a5.54,5.54,0,0,1-4.91,3.16c-2.1,0-3.79-1.13-5-3.36,0-.91.07-1.82,0.07-2.73a11,11,0,0,0-2.25-6.67C2794.82,790.89,2794.79,790.14,2794.79,789.4Zm-15.09,25.39-0.11-.18,0.12-.08h-0.16c-1.81-2.9-2.95-7.34-3.27-12.88h0l0-.44h0c0-1-.08-1.92-0.08-2.89a9.88,9.88,0,0,1,19.75,0c0,1,0,1.91-.08,2.86h0l0,0.47h0c-0.33,5.55-1.45,10-3.25,12.88h-0.19l0.13,0.1-0.1.17a7.29,7.29,0,0,1-12.71,0h0Zm16.71-13.59h0Zm-2,13.33-0.35-.23a30.48,30.48,0,0,0,2.85-11.3,6.33,6.33,0,0,0,5.15,2.6,6.48,6.48,0,0,0,5.6-3.22l0,0h0c4.68,3.22,6.83,9.94,7.42,12.14h-20.7Zm-30-12.16a6.5,6.5,0,0,0,5.61,3.23,6.3,6.3,0,0,0,5.12-2.58,30.39,30.39,0,0,0,2.86,11.26l-0.37.24H2757C2757.58,812.31,2759.74,805.58,2764.46,802.36Z" transform="translate(-2742.35 -763.36)"/></svg>