<svg xmlns="http://www.w3.org/2000/svg" xmlns:xlink="http://www.w3.org/1999/xlink" viewBox="0 0 98.63 98.3"><defs><style>.a{isolation:isolate;}.b{opacity:0.3;fill:url(#a);}.c{fill:#9b4534;}.d{fill:#272425;mix-blend-mode:screen;}.e{fill:#434244;}.f{fill:#fff;}</style><linearGradient id="a" x1="3904.41" y1="3562.82" x2="3904.41" y2="3611.09" gradientTransform="translate(-606.44 -1086.79)" gradientUnits="userSpaceOnUse"><stop offset="0" stop-color="#a5a6a9"/><stop offset="1" stop-color="#a5a6a9" stop-opacity="0"/></linearGradient></defs><title>icon-day3</title><g class="a"><rect class="b" x="3260.7" y="2475.23" width="74.59" height="49.18" transform="translate(-4044.81 618.86) rotate(-45)"/><circle class="c" cx="38.21" cy="38.21" r="38.21"/><path class="d" d="M3280.47,2445.27c21.45,0,38.83,17.12,38.83,38.25s-17.38,38.25-38.83,38.25" transform="translate(-3243.12 -2445.27)"/><path class="e" d="M3256.84,2500.5a0.36,0.36,0,0,1,.32-0.15h0l15,0.59,0.3-.06,6.74-1.93h0l20.24,1.36c0.18,0-2.39-.28,0,0v1.77l3.28,0.08a0.37,0.37,0,0,1,.26.11,0.21,0.21,0,0,1,.05.22l-2.73,7.34a1.32,1.32,0,0,0,.56-1,0.18,0.18,0,0,1,.2-0.16h0a0.2,0.2,0,0,1,.25.15,1.75,1.75,0,0,0,1.93,1.47,0.16,0.16,0,1,1,0,.31,2.43,2.43,0,0,1-2.18-1.14,2,2,0,0,1-1,.89l-0.1.28-0.14-.15,0,0a2.88,2.88,0,0,1-.87.15h-0.12a2.41,2.41,0,0,1-2.11-1.14,7.18,7.18,0,0,0-6.55,1.14,2.62,2.62,0,0,0-4.33,0h-0.1a2.59,2.59,0,0,0-4.29,0,2.66,2.66,0,0,0-4.37,0,2.61,2.61,0,0,0-4.32,0h-0.12a2.45,2.45,0,0,0-4.14,0,0.35,0.35,0,0,1-.13,0,1.32,1.32,0,0,1-.22,0,2.39,2.39,0,0,1-2-1.13,2.43,2.43,0,0,1-2.18,1.14,0.16,0.16,0,1,1,0-.31,1.75,1.75,0,0,0,1.93-1.47,0.13,0.13,0,0,1,0-.1l-9.15-7.92A0.21,0.21,0,0,1,3256.84,2500.5Zm39.57,1.38v-1.47l-17.11-.94-4.86,1.53Zm-29.85,7.27" transform="translate(-3243.12 -2445.27)"/><path class="f" d="M3292.87,2498.46l-11.35-.84a0.48,0.48,0,0,1-.39-0.51v-40.24a0.54,0.54,0,0,1,.22-0.45,0.38,0.38,0,0,1,.43,0,147.34,147.34,0,0,1,9.19,14c3.38,6,6.21,11.43,14.89,29.44C3305.83,2500.14,3293.1,2498.46,3292.87,2498.46Z" transform="translate(-3243.12 -2445.27)"/><path class="f" d="M3279.68,2497.38l-10.35.25h0a0.35,0.35,0,0,1-.34-0.37,0.38,0.38,0,0,1,.07-0.22l10.3-25a0.34,0.34,0,0,1,.38-0.21,0.36,0.36,0,0,1,.27.35V2497A0.36,0.36,0,0,1,3279.68,2497.38Z" transform="translate(-3243.12 -2445.27)"/><path class="f" d="M3267.64,2497.63l-7.1-.42h0a0.22,0.22,0,0,1-.16-0.25l12.94-15.53a0.53,0.53,0,0,1,.52-0.2,0.27,0.27,0,0,1,.17.38l-6.08,15.9A0.3,0.3,0,0,1,3267.64,2497.63Z" transform="translate(-3243.12 -2445.27)"/><polygon class="e" points="23.43 54.63 26.57 52.9 36.34 53.68 32.33 54.63 23.43 54.63"/></g></svg>