<svg xmlns="http://www.w3.org/2000/svg" viewBox="0 0 87.41 87.41"><defs><style>.a{fill:#90ff69;}.b{fill:#fff;}</style></defs><title>icon-estado</title><circle class="a" cx="43.71" cy="43.71" r="43.71"/><path class="b" d="M2926.15,837.7h-0.29a1,1,0,0,1-.54-0.16h-0.06a1.91,1.91,0,0,1-1.33-.51,4.78,4.78,0,0,1-.48-0.62,2.83,2.83,0,0,0-.26-0.35c-0.18-.2-0.38-0.38-0.57-0.56s-0.42-.4-0.62-0.61a1.08,1.08,0,0,1-.3,0,1.56,1.56,0,0,1-1.05-.44,1,1,0,0,1-.26-0.78,1,1,0,0,0-.31-0.58c-0.1-.14-0.21-0.28-0.29-0.42a1.54,1.54,0,0,1,.16-1.92,10.87,10.87,0,0,1,4.27-3.3,3.93,3.93,0,0,0,.09-0.89,1.13,1.13,0,0,0,0-.15,2.11,2.11,0,0,1-.52-2.48l0-.1h-0.12a1.34,1.34,0,0,1-1-.39,1.75,1.75,0,0,1-.38-1.37,4.27,4.27,0,0,1,0-.45,0.78,0.78,0,0,0-.11-0.58,0.74,0.74,0,0,0-.5-0.24l-0.2,0-0.8-.09a1.56,1.56,0,0,1-1.49-1.6,13.42,13.42,0,0,1,.85-5.25,0.39,0.39,0,0,0-.12-0.54,1.59,1.59,0,0,1-.9-1.77,3.76,3.76,0,0,1-2.06-.86,1.8,1.8,0,0,1-.49-2.34,1.57,1.57,0,0,0,.09-1v-0.07l-0.07,0a1.51,1.51,0,0,0-.61-0.29l-0.32,0a1.54,1.54,0,0,1-1.36-.79,2.65,2.65,0,0,1-1-.51l-0.22-.15a2.29,2.29,0,0,0-1-.42c-1.2-.09-2.46-1.77-2.57-2.75a2,2,0,0,1,0-.48c0-.17,0-0.34.07-0.51s0.06-.38.08-0.56a2.33,2.33,0,0,0-.48.12,2,2,0,0,0-.4.29,3,3,0,0,1-1.37.74l-0.29.12a3.63,3.63,0,0,1-1.07.33,12.08,12.08,0,0,1-1.34.06h-0.8a2,2,0,0,1-1.5-.55,1.86,1.86,0,0,1-.45-1.27l-0.43.14a1.42,1.42,0,0,1-1.75-.77,1.83,1.83,0,0,0-.32-0.17,1.73,1.73,0,0,1-.87-0.88c-0.15-.36-0.29-0.72-0.43-1.09l-0.26-.67a1.94,1.94,0,0,1,.18-3,1.7,1.7,0,0,0,.46-0.89,3.66,3.66,0,0,1,3.47-2.91,2.93,2.93,0,0,1,1.57-.26l0-.2c0.07-.3.14-0.6,0.22-0.9a6.9,6.9,0,0,0,.16-0.74,5.26,5.26,0,0,1,.66-2,0.21,0.21,0,0,0-.06-0.16l-0.14-.21a8.51,8.51,0,0,1-.49-0.79,1.88,1.88,0,0,1-.14-1.72,1.47,1.47,0,0,1,.57-0.59,1.26,1.26,0,0,1-.13-0.87,1.53,1.53,0,0,1,1.14-1.09,2.48,2.48,0,0,1,.54-0.05h0.79a3.71,3.71,0,0,0,.63,0,6.59,6.59,0,0,1,1.14-.15c1.15,0,1.51.81,1.92,1.76l0,0.07h0.09l0.25,0,0.33,0h0.46c0.64-.35,1.34-0.75,2-1.15a2.59,2.59,0,0,1-.72-2.25,1.42,1.42,0,0,1,1.4-1.32,1.71,1.71,0,0,1,.71.17c0.19,0.09.42,0.2,0.66,0.33a1.89,1.89,0,0,1,1.38-.52c1.07,0,1.39-.23,1.62-0.66a1.49,1.49,0,0,1,.42-0.47,1.32,1.32,0,0,1,.7-0.29h0.38a1,1,0,0,1,1,.73l0.17,0.6a3.7,3.7,0,0,1,.08.36l0,0.09a1.54,1.54,0,0,1,.14,2,1.46,1.46,0,0,0-.3,1.17c0.2,0.9.47,0.9,0.73,0.9a2.42,2.42,0,0,0,.53-0.07l0.14,0a5.11,5.11,0,0,1,2.47-.09s0.07-.06.18-0.17a2.68,2.68,0,0,1,3.59-.06,3.09,3.09,0,0,0,1.19.22,1.86,1.86,0,0,0,.34,0l0.29-.25,0.41-.35a2.36,2.36,0,0,1,.9-1.47l0.13-.12a1.46,1.46,0,0,1,1-.41,1.37,1.37,0,0,1,1.34,1.12c0.18,0.79.35,1.57,0.5,2.36l0.56,0.22,0.22,0.09a1,1,0,0,1,.47,1.49c-0.08.12-.17,0.23-0.25,0.34a1.37,1.37,0,0,0-.15.2,1.73,1.73,0,0,1-.41.83,6.44,6.44,0,0,1,1.79.45,1.42,1.42,0,0,1,1,1.11s0,0.06,0,.08h0a5.4,5.4,0,0,1,1.13.13,8.28,8.28,0,0,1,2.72,1.26c0.3,0.19.59,0.37,0.9,0.54a1.44,1.44,0,0,1,.66,1.31h0a2.55,2.55,0,0,1,2.36.44,2.19,2.19,0,0,0,1.94.53,2.67,2.67,0,0,1,2.77,1l0.19,0.13,0.2,0.15a4,4,0,0,1,.69.58,7.31,7.31,0,0,1,.54.7c0.09,0.13.19,0.27,0.29,0.4,0.26,0.33.45,0.59,0.61,0.81,0.4,0.57.4,0.57,1.66,0.84a2.42,2.42,0,0,1,1.88,2.14c0.1,0.52.18,1.05,0.25,1.58l0.1,0.65a3.59,3.59,0,0,1-.8,3l-0.46.55c-0.42.5-.84,1-1.33,1.5a3.39,3.39,0,0,1-1.66.94,0.79,0.79,0,0,0-.7.64,3.83,3.83,0,0,1-2.39,2.47c-0.27.1-.39,0.16-0.46,0.75-0.2,1.53-.4,2.77-0.62,3.9a5.11,5.11,0,0,1-1.53,3.14,3.35,3.35,0,0,1-1.07,2.56c-0.38.41-.76,0.81-1.14,1.21-0.11.11-.24,0.22-0.36,0.33a1.88,1.88,0,0,0-.28.26,5.34,5.34,0,0,1-3.35,2.47,3.87,3.87,0,0,1-2.06-.09,1.1,1.1,0,0,0-.28-0.06,3.2,3.2,0,0,1-1.76.88c-0.16,0-.32.07-0.47,0.13a11.06,11.06,0,0,0-2.54,1.38l-0.09.06a2.14,2.14,0,0,1-.6.33l-0.06.34c-0.18,1-.36,2-0.57,3a3.08,3.08,0,0,1-.83,1.54,6.54,6.54,0,0,0-1.46,1.82,1.46,1.46,0,0,1-1.71.79,6.57,6.57,0,0,0-1.54,2.32A1,1,0,0,1,2926.15,837.7Zm-3.91-4.87a1.86,1.86,0,0,1,1.19.67c0.18,0.19.37,0.37,0.57,0.55s0.46,0.43.68,0.67a4.82,4.82,0,0,1,.45.59l0.16,0.23,0.31,0a8.92,8.92,0,0,1,1.86-2.42,1.49,1.49,0,0,1,1-.49,1.28,1.28,0,0,1,.29,0,9.37,9.37,0,0,1,1.64-2,1.1,1.1,0,0,0,.25-0.51c0.21-1,.38-2,0.56-3l0.21-1.18a1,1,0,0,1,1.27-.78l0.1-.07a12.84,12.84,0,0,1,3-1.62,6.71,6.71,0,0,1,.67-0.18,1.61,1.61,0,0,0,.81-0.33,2,2,0,0,1,2.27-.46,2,2,0,0,0,1,.08,3.36,3.36,0,0,0,2.15-1.55,3,3,0,0,1,.71-0.78l0.22-.2c0.38-.39.75-0.78,1.11-1.17a1.33,1.33,0,0,0,.53-1.09,1.84,1.84,0,0,1,.64-1.59,3.13,3.13,0,0,0,.93-2.06c0.21-1.08.41-2.28,0.6-3.76a2.64,2.64,0,0,1,1.78-2.37,1.82,1.82,0,0,0,1.16-1.21,2.77,2.77,0,0,1,2.21-2,1.48,1.48,0,0,0,.64-0.39c0.42-.42.8-0.88,1.2-1.36l0.47-.57a1.58,1.58,0,0,0,.35-1.36l-0.1-.67c-0.07-.5-0.14-1-0.24-1.5s-0.27-.54-0.33-0.55c-1.84-.39-2.18-0.66-2.88-1.64-0.13-.19-0.3-0.42-0.54-0.72s-0.25-.33-0.37-0.5a5.22,5.22,0,0,0-.39-0.51,2.42,2.42,0,0,0-.36-0.28l-0.26-.19a1.61,1.61,0,0,1-.55-0.47,0.72,0.72,0,0,0-.83-0.26,4.19,4.19,0,0,1-3.6-1,0.71,0.71,0,0,0-.61,0c-0.33.08-.65,0.19-1,0.3l-0.56.18a1,1,0,0,1-1.26-1.21l0.11-.42c0.06-.2.11-0.39,0.15-0.59l-0.58-.36a6.66,6.66,0,0,0-2.07-1,2.29,2.29,0,0,0-2.18.48,6.19,6.19,0,0,1-.49.38l-0.21.16a1,1,0,0,1-1.4-.21l-0.37-.51a1,1,0,0,1,.23-1.4l0.56-.4,0.29-.21a1.76,1.76,0,0,0-1.46.39,2.53,2.53,0,0,1-1.62.67,2.28,2.28,0,0,1-.51-0.06,1,1,0,0,1-.63-1.49l0.14-.26a3,3,0,0,1,.55-0.81,21.93,21.93,0,0,1,1.78-1.55,1.93,1.93,0,0,0,.23-0.19s0-.1,0-0.14a1.8,1.8,0,0,1-.91-1.32c-0.05-.27-0.1-0.54-0.16-0.81a1.57,1.57,0,0,1-.21.24l-0.64.56-0.24.21a1.69,1.69,0,0,1-.34.27,2.74,2.74,0,0,1-1.34.28,4.35,4.35,0,0,1-2.54-.75,0.61,0.61,0,0,0-.41-0.15,0.58,0.58,0,0,0-.41.16,2.1,2.1,0,0,1-2.13.68,3.09,3.09,0,0,0-1.48.11l-0.15,0a4.33,4.33,0,0,1-1,.12c-1,0-2.23-.43-2.69-2.46a3.33,3.33,0,0,1,.46-2.5,1.62,1.62,0,0,1-.14-0.24,4.06,4.06,0,0,1-2.55.71h0a1.36,1.36,0,0,1-1.2.73h-0.18a1.47,1.47,0,0,1,.36,1,1.57,1.57,0,0,1-.88,1.27l-0.39.22c-0.77.44-1.54,0.89-2.32,1.3a2.2,2.2,0,0,1-1,.21h-0.14a2.51,2.51,0,0,1-.43,0l-0.45,0a1.88,1.88,0,0,1-1.81-1.27c-0.09-.19-0.18-0.41-0.25-0.55l-0.58.1a4.84,4.84,0,0,1-.86.07,1,1,0,0,1-.44,1.33l-0.1.06a2.26,2.26,0,0,1-.49.24l0.24,0.36,0.15,0.23a2.05,2.05,0,0,1,.08,2.32,3.56,3.56,0,0,0-.38,1.27,9,9,0,0,1-.2.94c-0.07.26-.13,0.53-0.19,0.79s-0.12.5-.18,0.75a1.44,1.44,0,0,1-1.81,1,1.24,1.24,0,0,0-.86.08,1.78,1.78,0,0,1-.64.15c-0.7,0-1.24.29-1.64,1.51a3.57,3.57,0,0,1-1.12,1.86h0l0.08,0.11a2.25,2.25,0,0,1,.34.54l0.27,0.71c0.12,0.3.23,0.6,0.35,0.9a2.69,2.69,0,0,1,1,.68l0.44-.17,0.42-.17,0.39-.13,0.2-.06a1,1,0,0,1,1.31,1l0,0.45c0,0.27-.05.52-0.07,0.77h0.74a10.07,10.07,0,0,0,1.12,0,2.21,2.21,0,0,0,.48-0.18l0.27-.12a1,1,0,0,1,.43-0.14,1.19,1.19,0,0,0,.49-0.31,3.4,3.4,0,0,1,.94-0.61,5.67,5.67,0,0,1,1.91-.32,1.14,1.14,0,0,1,.8.33,2.13,2.13,0,0,1,.53,1.35,9.21,9.21,0,0,1-.12,1.22c0,0.16,0,.31-0.07.47a2.5,2.5,0,0,0,.8,1,4.11,4.11,0,0,1,1.76.67,4.38,4.38,0,0,1,.44.3,1.57,1.57,0,0,0,.26.18h0a1.31,1.31,0,0,1,1.11.7,3.05,3.05,0,0,1,1.75.6l0.26,0.16a1.58,1.58,0,0,1,.71,1.26l0,0.22a3.56,3.56,0,0,1-.26,1.95,1.92,1.92,0,0,0,1.25.39,1.4,1.4,0,0,1,1.51,2.09,2.36,2.36,0,0,1,.85,2.92,11.19,11.19,0,0,0-.71,4.15l0.52,0.06,0.2,0a2.62,2.62,0,0,1,2.38,3,1.55,1.55,0,0,1,1.19.54,1.76,1.76,0,0,1,.31,1.5,5,5,0,0,1-.17.74,1.24,1.24,0,0,0-.09.36,1.79,1.79,0,0,1,.73,1.6,4.51,4.51,0,0,1-.22,1.55,2.12,2.12,0,0,1-1.16,1.24,8.42,8.42,0,0,0-3.27,2.52l0,0A4,4,0,0,1,2922.24,832.83Z" transform="translate(-2883.58 -763.36)"/></svg>