<svg xmlns="http://www.w3.org/2000/svg" xmlns:xlink="http://www.w3.org/1999/xlink" viewBox="0 0 98.63 98.3"><defs><style>.a{isolation:isolate;}.b{opacity:0.3;fill:url(#a);}.c{fill:#487ffa;}.d{fill:#272425;mix-blend-mode:screen;}.e{fill:#fff;}</style><linearGradient id="a" x1="4026.72" y1="3439.96" x2="4026.72" y2="3488.23" gradientTransform="translate(-729.2 -1137.23)" gradientUnits="userSpaceOnUse"><stop offset="0" stop-color="#a5a6a9"/><stop offset="1" stop-color="#a5a6a9" stop-opacity="0"/></linearGradient></defs><title>icon-day1</title><g class="a"><rect class="b" x="3260.32" y="2301.87" width="74.58" height="49.18" transform="translate(-3921.97 741.11) rotate(-45)"/><circle class="c" cx="38.21" cy="38.28" r="38.21"/><path class="d" d="M3280.09,2271.91c21.45,0,38.83,17.12,38.83,38.24s-17.38,38.25-38.83,38.25" transform="translate(-3242.74 -2271.91)"/><path class="e" d="M3259.87,2313.24a3.9,3.9,0,1,0,3.92,4.19c0-.11,0-0.22,0-0.33a3.9,3.9,0,0,0-3.94-3.86h0Zm-0.32,1.48v1.12a1.38,1.38,0,0,0-.34.15l-0.8-.79a2.43,2.43,0,0,1,1.13-.48h0Zm-1.61,1,0.8,0.79a1.42,1.42,0,0,0-.14.34h-1.12a2.46,2.46,0,0,1,.45-1.14h0Zm-0.45,1.81h1.13a1.36,1.36,0,0,0,.14.34l-0.79.8a2.45,2.45,0,0,1-.48-1.13h0Zm1,1.6,0.79-.8a1.28,1.28,0,0,0,.34.13v1.12a2.36,2.36,0,0,1-1.14-.46h0Zm3.87-2.32h-1.12a1.36,1.36,0,0,0-.14-0.34l0.79-.8a2.43,2.43,0,0,1,.48,1.13h0Zm-2.1-2.07a2.45,2.45,0,0,1,1.14.46l-0.79.8a1.33,1.33,0,0,0-.35-0.14v-1.12Zm0,4.84v-1.12a1.48,1.48,0,0,0,.34-0.14l0.8,0.79a2.42,2.42,0,0,1-1.12.48h0Zm1.6-1-0.81-.79a1.27,1.27,0,0,0,.14-0.34h1.12a2.46,2.46,0,0,1-.46,1.14h0Zm0,0" transform="translate(-3242.74 -2271.91)"/><path class="e" d="M3297.58,2313.24a3.9,3.9,0,0,0-3.86,3.93,4.09,4.09,0,0,0,0,.49,3.89,3.89,0,0,0,7.74-.23c0-.11,0-0.22,0-0.33a3.9,3.9,0,0,0-3.94-3.86h0Zm-0.32,1.48v1.12a1.4,1.4,0,0,0-.34.15l-0.8-.79a2.44,2.44,0,0,1,1.13-.48h0Zm-1.61,1,0.8,0.79a1.42,1.42,0,0,0-.14.34h-1.12a2.41,2.41,0,0,1,.45-1.14h0Zm-0.45,1.81h1.13a1.18,1.18,0,0,0,.14.34l-0.79.8a2.48,2.48,0,0,1-.49-1.13h0Zm1,1.6,0.79-.8a1.27,1.27,0,0,0,.34.13v1.12a2.36,2.36,0,0,1-1.14-.46h0Zm3.87-2.32h-1.12a1.35,1.35,0,0,0-.14-0.34l0.79-.8a2.44,2.44,0,0,1,.48,1.13h0Zm-2.1-2.07a2.45,2.45,0,0,1,1.14.46l-0.79.8a1.32,1.32,0,0,0-.35-0.14v-1.12Zm0,4.84v-1.12a1.4,1.4,0,0,0,.34-0.14l0.8,0.79a2.46,2.46,0,0,1-1.13.48h0Zm1.6-1-0.81-.79a1.35,1.35,0,0,0,.14-0.34H3300a2.47,2.47,0,0,1-.46,1.14h0Zm0,0" transform="translate(-3242.74 -2271.91)"/><path class="e" d="M3309.81,2314.7l-1.34-.59a24.34,24.34,0,0,0-1.94-13.27,1.06,1.06,0,0,0-.66-0.55c-4.41-1.3-30.09-1.15-36.27-.08a3.18,3.18,0,0,0-1.46.66c-1.78,1.44-6.37,5.46-6.37,5.46s-5.24.93-7,1.26c-1.52.29-2.24,1.09-2.23,2.15l0,3.79-0.58.17a0.55,0.55,0,0,0-.39.52v1.58a2.65,2.65,0,0,0,1,1.49,12.88,12.88,0,0,0,2.55.18c0-.1,0-0.19,0-0.29a4.79,4.79,0,1,1,9.58-.09c0,0.14,0,.41,0,0.41l28.16-.18s0-.09,0-0.13a4.79,4.79,0,0,1,9.58-.09c0,0.13,0,.37,0,0.37l3.74-.62v0.7a0.29,0.29,0,0,0,.29.29h0.66a0.29,0.29,0,0,0,.29-0.29v-0.76h2.12a0.78,0.78,0,0,0,.79-0.78v-0.59a0.78,0.78,0,0,0-.47-0.72h0Zm-35.91-8.11a0.34,0.34,0,0,1-.34.32h-6.47s0-1.72,0-2.15a1.46,1.46,0,0,0-.34-0.93l2.37-2.18a1.57,1.57,0,0,1,1-.41l3.74-.08a0.35,0.35,0,0,1,.26.11,0.35,0.35,0,0,1,.1.26Zm0,0" transform="translate(-3242.74 -2271.91)"/></g></svg>