<svg xmlns="http://www.w3.org/2000/svg" viewBox="0 0 87.41 87.41"><defs><style>.a{fill:#9b4534;}.b{fill:#fff;}</style></defs><title>icon-trasnporte</title><circle class="a" cx="43.7" cy="43.71" r="43.71"/><path class="b" d="M2523.72,825.41a8.08,8.08,0,0,1-7.76-7.75,7.48,7.48,0,0,1,2.19-5.4,8.06,8.06,0,0,1,5.71-2.43,7.7,7.7,0,0,1,7.63,7.7,7.83,7.83,0,0,1-7.65,7.88h-0.11Zm0.15-14.39a6.87,6.87,0,0,0-4.87,2.06,6.31,6.31,0,0,0-1.85,4.55,6.85,6.85,0,0,0,6.57,6.59h0.1a6.65,6.65,0,0,0,6.48-6.69A6.51,6.51,0,0,0,2523.87,811Zm-34.74,14.39h-0.08a7.79,7.79,0,0,1,.08-15.57h0.08a7.88,7.88,0,0,1,7.7,7.84A8,8,0,0,1,2489.13,825.41Zm0-14.39a6.59,6.59,0,0,0-6.56,6.34,6.68,6.68,0,0,0,6.49,6.86h0.07a6.8,6.8,0,0,0,6.6-6.56,6.67,6.67,0,0,0-6.53-6.63h-0.07Zm0,10.15h0a3.5,3.5,0,0,1-3.71-3.62,3.55,3.55,0,0,1,3.61-3.58h0.05a3.7,3.7,0,0,1,3.78,3.57,3.53,3.53,0,0,1-1,2.55A3.78,3.78,0,0,1,2489.16,821.17Zm-0.05-6.61,0,0.6a2.41,2.41,0,1,0,.08,4.82,2.59,2.59,0,0,0,1.87-.73,2.38,2.38,0,0,0,.67-1.7,2.51,2.51,0,0,0-2.59-2.39v-0.6Zm34.63,6.61h-0.06a3.51,3.51,0,0,1-3.6-3.56,3.56,3.56,0,0,1,1-2.55,3.84,3.84,0,0,1,2.75-1.08H2524a3.58,3.58,0,0,1,3.53,3.68A3.53,3.53,0,0,1,2523.73,821.17Zm0.1-6a2.65,2.65,0,0,0-1.9.73,2.42,2.42,0,0,0,1.76,4.08h0a2.37,2.37,0,0,0,2.61-2.35,2.4,2.4,0,0,0-2.37-2.47h-0.09Zm-46.61,2.55c-2.33,0-2.33-1.28-2.33-4.09v-1.26h-0.39c-0.7,0-1.37,0-2,0-2.11-.08-3-1-3-3,0-3.4,0-6.57,0-9.67,0-2,.79-2.8,2.78-2.85,0.67,0,1.34,0,2.09,0h0.54v-0.68c0-.9,0-1.76,0-2.62,0-3.11,1.63-4.76,4.68-4.77q13.75,0,27.49,0a6.07,6.07,0,0,1,5.61,3.3c0.79,1.4,1.62,2.81,2.42,4.17s1.59,2.68,2.35,4a1.34,1.34,0,0,0,1.38.85h0.07c1.47,0,3.06,0,5,0h5.69c3.9,0,5.36,1.44,5.36,5.27q0,0.49,0,1c0,0.8,0,1.63,0,2.45a0.93,0.93,0,0,0,.09.62,0.67,0.67,0,0,0,.37,0,2,2,0,0,1,1.88.47,2.4,2.4,0,0,1,.4,1.89,8.87,8.87,0,0,0,0,1.67,3,3,0,0,1-.66,2.36c-0.65.7-1.72,0.94-3.23,0.71a1.94,1.94,0,0,1-1.22-1.5c-0.76-4-4.12-7.15-7.66-7.27-5.17-.17-8.72,2.24-9.64,6.55-0.42,2-1.37,2.36-2.89,2.36h-0.24c-1.85,0-3.78,0-5.74,0s-4,0-6.12,0h-0.1a2.09,2.09,0,0,1-2.38-2,8.4,8.4,0,0,0-8.31-7h-0.23a8.61,8.61,0,0,0-8.69,6.65c-0.1.38-.2,0.77-0.31,1.14l-0.22.82-0.29.11-0.1,0a1.17,1.17,0,0,1-.38.11C2478.41,817.66,2477.75,817.72,2477.22,817.72Zm-1.74-6.54h0.6v2.45c0,2.9,0,2.9,1.14,2.9,0.46,0,1.07,0,1.83-.11l0.06-.22c0.1-.37.21-0.75,0.3-1.13a9.87,9.87,0,0,1,9.84-7.54h0.26a9.67,9.67,0,0,1,9.46,7.94,1,1,0,0,0,1.21,1h0.08c2.16,0,4.16,0,6.14,0s3.91,0,5.76,0h0.22c1.08,0,1.45-.11,1.72-1.42,1-4.86,5.09-7.7,10.84-7.49,4.07,0.14,7.93,3.76,8.79,8.24a1.29,1.29,0,0,0,.3.56,2.42,2.42,0,0,0,2.11-.35,1.93,1.93,0,0,0,.34-1.46,10.24,10.24,0,0,1,0-1.89,1.27,1.27,0,0,0-.1-1,0.62,0.62,0,0,0-.44-0.12l-0.37,0a1.48,1.48,0,0,1-1.41-.36,2,2,0,0,1-.42-1.48c0-.79,0-1.61,0-2.4,0-.33,0-0.66,0-1,0-3.2-.9-4.08-4.17-4.09h-5.69c-2,0-3.54,0-5,0h-0.09a2.51,2.51,0,0,1-2.41-1.46c-0.76-1.35-1.56-2.71-2.33-4s-1.64-2.78-2.43-4.19a4.9,4.9,0,0,0-4.58-2.69q-13.75-.05-27.49,0c-2.4,0-3.48,1.11-3.49,3.59,0,0.86,0,1.71,0,2.61V798h-3.79c-1.36,0-1.61.3-1.62,1.67,0,3.09,0,6.25,0,9.66,0,1.43.37,1.8,1.84,1.85,0.65,0,1.31,0,2,0h1Zm9.08-8.79h-5.76v-0.6c0-.68,0-1.35,0-2,0-2.06,0-4,0-6a1.87,1.87,0,0,1,1.5-1.53c4.06-.06,8.17-0.06,12.21,0a1.89,1.89,0,0,1,1.5,1.54c0.07,2.23.08,4.52,0,7a1.76,1.76,0,0,1-1.38,1.5C2489.85,802.38,2487,802.39,2484.56,802.39Zm-4.57-1.19h4.57c2.4,0,5.23,0,8,0a1,1,0,0,0,.29-0.38c0.07-2.44.07-4.71,0-6.91a1.29,1.29,0,0,0-.38-0.39c-4-.06-8-0.06-12.07,0a1.09,1.09,0,0,0-.39.42c-0.05,1.89,0,3.83,0,5.88C2480,800.25,2480,800.72,2480,801.19Zm34.32,1h-18.23v-2.39c0-2.05,0-4.17,0-6.25a1.75,1.75,0,0,1,1.52-1.34c1.61,0,3.27,0,5.09,0l4.73,0a1.9,1.9,0,0,1,1.5.77c1.24,2.06,2.44,4.15,3.71,6.36Zm-17-1.19h15l-0.62-1.08c-1.27-2.21-2.47-4.29-3.7-6.35a0.9,0.9,0,0,0-.49-0.19l-4.72,0c-1.81,0-3.47,0-5.07,0a1.15,1.15,0,0,0-.35.27c-0.05,2,0,4.11,0,6.12V801Z" transform="translate(-2459.88 -763.36)"/></svg>